# xmcd
# 
# Track frame offsets:
#     150
#     30212
#     45935
#     63649
#     78060
#     88160
#     102970
#     118467
#     138240
#     152585
#     167163
#     181260
#     209991
# 
# Disc length: 2883
# 
# Revision: 13
# Processed by: cddbd v1.5.2PL0 Copyright (c) Steve Scherf et al.
# Submitted via: fre:ac v1.1beta1pre5
# 
DISCID=aa0b410d
DTITLE=John Sinclair - 018 - Die teuflischen Puppen
DYEAR=2002
DGENRE=Hörspiel
TTITLE0=Kapitel 01
TTITLE1=Kapitel 02
TTITLE2=Kapitel 03
TTITLE3=Kapitel 04
TTITLE4=Kapitel 05
TTITLE5=Kapitel 06
TTITLE6=Kapitel 07
TTITLE7=Kapitel 08
TTITLE8=Kapitel 09
TTITLE9=Kapitel 10
TTITLE10=Kapitel 11
TTITLE11=Kapitel 12
TTITLE12=Outtakes
EXTD=
EXTT0=
EXTT1=
EXTT2=
EXTT3=
EXTT4=
EXTT5=
EXTT6=
EXTT7=
EXTT8=
EXTT9=
EXTT10=
EXTT11=
EXTT12=
PLAYORDER=
